<?xml version="1.0" encoding="UTF-8"?>
<svg version="1.1" xmlns="http://www.w3.org/2000/svg" width="500" height="500">
<path d="M0 0 C2.95792024 2.4297202 5.65209622 4.97002362 8 8 C8 8.66 8 9.32 8 10 C11.05270463 10.15811388 11.05270463 10.15811388 14 9 C23.58059562 8.93365238 30.89265978 10.66912594 38.875 15.875 C41.46305304 18.46305304 42.81875879 20.52576116 44 24 C43.56607661 27.34349393 42.87944206 29.31532264 40.17553711 31.42041016 C37.82648838 32.84055067 35.4428519 34.12332201 33 35.375 C31.75089844 36.04982422 31.75089844 36.04982422 30.4765625 36.73828125 C24.34968655 40 24.34968655 40 22 40 C21.49095343 41.87256417 20.99317545 43.74819341 20.5 45.625 C20.2215625 46.66914063 19.943125 47.71328125 19.65625 48.7890625 C19.00881404 51.95687418 18.8838708 54.77741467 19 58 C15.1606718 58.99615002 12.53514399 58.87075394 8.6875 58 C-1.26198633 56.17756934 -11.36530042 56.95877529 -21 60 C-19.47738167 61.52261833 -18.00119467 61.24800552 -15.87890625 61.39453125 C6.80930089 63.15651297 6.80930089 63.15651297 14.0625 71.0625 C17.8054478 75.65091366 18.32630714 79.49538071 18.30078125 85.28125 C17.82112449 89.61684879 16.05736573 93.19754727 14 97 C14.61488281 97.2784375 15.22976562 97.556875 15.86328125 97.84375 C19.17143012 99.63390003 20.27639432 101.67165799 22 105 C23.61139384 110.63017124 23.39997142 114.9824409 20.9375 120.3125 C17.08763833 127.04184724 12.77270892 130.01716361 5.43945312 132.37124634 C1.65890678 133.34565832 -1.98650195 133.47887461 -5.875 133.51171875 C-6.68437012 133.52966995 -7.49374023 133.54762115 -8.32763672 133.56611633 C-10.8850391 133.61967813 -13.44226646 133.65385835 -16 133.6875 C-17.71356668 133.72074008 -19.42710948 133.7552357 -21.140625 133.79101562 C-28.76138825 133.94152937 -36.37769889 134.01367863 -44 134 C-45.13744955 130.39248995 -45.08448918 127.06935067 -45.02172852 123.30371094 C-45.01212097 122.63988403 -45.00251343 121.97605713 -44.99261475 121.29211426 C-44.95973187 119.10608961 -44.91935925 116.92027156 -44.87890625 114.734375 C-44.85459464 113.21552246 -44.8307516 111.69666236 -44.80735779 110.17779541 C-44.74462036 106.18615072 -44.67552462 102.19464052 -44.60510254 98.203125 C-44.53432551 94.1276663 -44.46956467 90.05211249 -44.40429688 85.9765625 C-44.27541789 77.98426966 -44.13982133 69.99210887 -44 62 C-43.09636719 61.93941406 -42.19273438 61.87882812 -41.26171875 61.81640625 C-40.08222656 61.73261719 -38.90273437 61.64882812 -37.6875 61.5625 C-36.51574219 61.48128906 -35.34398437 61.40007812 -34.13671875 61.31640625 C-30.97409042 61.1132629 -30.97409042 61.1132629 -28 60 C-27.67 56.04 -27.34 52.08 -27 48 C-27.99 47.67 -28.98 47.34 -30 47 C-30 46.34 -30 45.68 -30 45 C-32.66301351 43.60281354 -35.25756155 42.52438106 -38.125 41.625 C-39.75079911 41.08573658 -41.37576416 40.54395379 -43 40 C-43.83402344 39.72414062 -44.66804688 39.44828125 -45.52734375 39.1640625 C-51.92982514 36.85561775 -58.81851242 33.36297517 -62 27 C-62.375 24.1875 -62.375 24.1875 -62 21 C-57.35865063 15.05327112 -50.76912178 11.57767682 -43.8125 9 C-39.49374631 7.36978552 -37.19643184 5.36466509 -34 2 C-31.42877085 0.4313885 -28.76295522 -0.80802926 -26 -2 C-25.05125 -2.4125 -24.1025 -2.825 -23.125 -3.25 C-14.86734055 -5.23183827 -7.36072344 -4.32561994 0 0 Z M-17 81 C-17 83.31 -17 85.62 -17 88 C-13.7 87.67 -10.4 87.34 -7 87 C-6.67 85.68 -6.34 84.36 -6 83 C-7.78657757 80.78629949 -7.78657757 80.78629949 -10.1640625 80.8046875 C-10.97617188 80.82789063 -11.78828125 80.85109375 -12.625 80.875 C-13.85089844 80.90207031 -13.85089844 80.90207031 -15.1015625 80.9296875 C-16.04128906 80.96449219 -16.04128906 80.96449219 -17 81 Z M-17 107 C-17.04080783 108.99958364 -17.04254356 111.00045254 -17 113 C-15.37536158 113.05395478 -13.75021459 113.09277195 -12.125 113.125 C-11.22007813 113.14820313 -10.31515625 113.17140625 -9.3828125 113.1953125 C-6.81193006 113.24324836 -6.81193006 113.24324836 -5 111 C-5.08571661 108.90708843 -5.08571661 108.90708843 -6 107 C-9.04802146 105.98399285 -14.45478189 104.45478189 -17 107 Z " fill="#E3E2DD" transform="translate(116,123)"/>
<path d="M0 0 C2.95792024 2.4297202 5.65209622 4.97002362 8 8 C8 8.66 8 9.32 8 10 C11.05270463 10.15811388 11.05270463 10.15811388 14 9 C23.58059562 8.93365238 30.89265978 10.66912594 38.875 15.875 C41.46305304 18.46305304 42.81875879 20.52576116 44 24 C43.56607661 27.34349393 42.87944206 29.31532264 40.17553711 31.42041016 C37.82648838 32.84055067 35.4428519 34.12332201 33 35.375 C31.75089844 36.04982422 31.75089844 36.04982422 30.4765625 36.73828125 C24.34968655 40 24.34968655 40 22 40 C21.49095343 41.87256417 20.99317545 43.74819341 20.5 45.625 C20.2215625 46.66914063 19.943125 47.71328125 19.65625 48.7890625 C19.00881404 51.95687418 18.8838708 54.77741467 19 58 C15.1606718 58.99615002 12.53514399 58.87075394 8.6875 58 C-2.10569992 56.05935075 -12.75084273 56.8085556 -22.86328125 61.16015625 C-25 62 -25 62 -28 62 C-27.67 57.38 -27.34 52.76 -27 48 C-27.99 47.67 -28.98 47.34 -30 47 C-30 46.34 -30 45.68 -30 45 C-32.66301351 43.60281354 -35.25756155 42.52438106 -38.125 41.625 C-39.75079911 41.08573658 -41.37576416 40.54395379 -43 40 C-43.83402344 39.72414062 -44.66804688 39.44828125 -45.52734375 39.1640625 C-51.92982514 36.85561775 -58.81851242 33.36297517 -62 27 C-62.375 24.1875 -62.375 24.1875 -62 21 C-57.35865063 15.05327112 -50.76912178 11.57767682 -43.8125 9 C-39.49374631 7.36978552 -37.19643184 5.36466509 -34 2 C-31.42877085 0.4313885 -28.76295522 -0.80802926 -26 -2 C-25.05125 -2.4125 -24.1025 -2.825 -23.125 -3.25 C-14.86734055 -5.23183827 -7.36072344 -4.32561994 0 0 Z " fill="#EAB12F" transform="translate(116,123)"/>
<path d="M0 0 C1.5631897 0.00785522 1.5631897 0.00785522 3.15795898 0.01586914 C4.28266602 0.0190918 5.40737305 0.02231445 6.56616211 0.02563477 C7.75016602 0.03401367 8.93416992 0.04239258 10.15405273 0.05102539 C11.34192383 0.05553711 12.52979492 0.06004883 13.75366211 0.06469727 C16.69967499 0.07652864 19.64558954 0.09301252 22.59155273 0.11352539 C23.9738129 2.87804572 23.6868066 5.15966169 23.65405273 8.23852539 C23.6450293 9.33422852 23.63600586 10.42993164 23.62670898 11.55883789 C23.61510742 12.40188477 23.60350586 13.24493164 23.59155273 14.11352539 C24.28120117 14.06711914 24.97084961 14.02071289 25.68139648 13.97290039 C35.76336613 13.58566425 42.46555591 16.33670761 49.86499023 23.17602539 C55.32383784 29.30179103 56.74421296 36.06892232 56.68920898 44.06274414 C56.68779404 44.83536087 56.68637909 45.6079776 56.68492126 46.40400696 C56.67932739 48.86971929 56.66677606 51.33534054 56.65405273 53.80102539 C56.64903694 55.47355012 56.64447417 57.14607627 56.64038086 58.81860352 C56.63021121 62.91697405 56.61063468 67.01514787 56.59155273 71.11352539 C48.01155273 71.11352539 39.43155273 71.11352539 30.59155273 71.11352539 C30.26155273 60.55352539 29.93155273 49.99352539 29.59155273 39.11352539 C27.94155273 39.11352539 26.29155273 39.11352539 24.59155273 39.11352539 C23.46971566 42.47903662 23.38354306 45.20412771 23.27514648 48.75024414 C23.23325195 50.04897461 23.19135742 51.34770508 23.14819336 52.68579102 C23.10838286 54.057533 23.06867058 55.42927783 23.02905273 56.80102539 C22.98584438 58.18450184 22.94222935 59.56796566 22.89819336 60.95141602 C22.79197246 64.33868259 22.68992916 67.72602338 22.59155273 71.11352539 C4.6088814 72.41949126 4.6088814 72.41949126 -1.40844727 72.11352539 C-3.40844727 70.11352539 -3.40844727 70.11352539 -3.65568542 67.26023865 C-3.65426041 66.04191849 -3.65283539 64.82359833 -3.65136719 63.56835938 C-3.65326553 62.89667725 -3.65516388 62.22499512 -3.65711975 61.53295898 C-3.6608305 59.30839439 -3.65012029 57.08415481 -3.63891602 54.85961914 C-3.63772438 53.31787657 -3.63727102 51.77613327 -3.63752747 50.23439026 C-3.63596214 47.00207988 -3.6276681 43.76988019 -3.61425781 40.53759766 C-3.59725365 36.38552849 -3.59344384 32.23358089 -3.594203 28.08148098 C-3.59393166 24.89800344 -3.58845651 21.71455271 -3.58120155 18.53108406 C-3.57801015 16.99960597 -3.57604638 15.46812484 -3.57530785 13.9366436 C-3.57315005 11.80080822 -3.56441855 9.66510423 -3.55371094 7.52929688 C-3.54989914 6.31177231 -3.54608734 5.09424774 -3.54216003 3.83982849 C-3.36160535 0.15845377 -3.36160535 0.15845377 0 0 Z " fill="#E4E3DE" transform="translate(152.408447265625,184.886474609375)"/>
<path d="M0 0 C1.390625 1.31640625 1.390625 1.31640625 3.265625 3.62890625 C3.265625 4.28890625 3.265625 4.94890625 3.265625 5.62890625 C3.925625 5.62890625 4.585625 5.62890625 5.265625 5.62890625 C9.99602111 15.27768772 9.74078819 24.35800099 9.515625 34.81640625 C9.49551699 36.45245195 9.47727387 38.08852167 9.4609375 39.72460938 C9.41730987 43.69331247 9.3485256 47.66083723 9.265625 51.62890625 C4.16110798 51.72849163 -0.94283177 51.80070956 -6.0480957 51.84863281 C-7.78126895 51.86863035 -9.51437575 51.89583773 -11.24731445 51.93066406 C-22.49222279 52.15083503 -30.50359947 51.94252008 -39.984375 45.37890625 C-46.40835494 38.95492631 -49.74936711 31.98362182 -50.109375 22.87890625 C-49.94153003 14.41322545 -47.25393537 7.35348294 -41.42578125 1.16015625 C-29.39650148 -9.73009241 -12.79460094 -10.11465074 0 0 Z M-24.734375 20.62890625 C-24.80710062 23.18350839 -24.80710062 23.18350839 -23.734375 25.62890625 C-20.84527651 27.22551331 -19.04378704 27.62890625 -15.734375 27.62890625 C-15.56760218 24.21234601 -15.56760218 24.21234601 -15.734375 20.62890625 C-17.56140727 18.37971545 -17.56140727 18.37971545 -20.234375 18.37890625 C-22.90734273 18.37971545 -22.90734273 18.37971545 -24.734375 20.62890625 Z " fill="#E3E2DD" transform="translate(269.734375,204.37109375)"/>
<path d="M0 0 C2.14918885 -0.01707423 4.2967824 -0.06091743 6.44555664 -0.10522461 C13.99596375 -0.19114055 19.74947734 -0.02501872 26.11938477 4.29516602 C29.60946744 7.96422729 31.02335864 10.56669577 31.30688477 15.67016602 C31.13037146 19.08275651 30.59412982 21.25350435 29.11938477 24.29516602 C29.75875977 25.05829102 30.39813477 25.82141602 31.05688477 26.60766602 C34.35977867 30.91143686 34.67880728 35.01173112 34.11938477 40.29516602 C32.24067809 44.88756011 29.42209622 46.9408522 25.11938477 49.29516602 C17.56075526 51.8387621 10.09195069 51.55651921 2.18188477 51.48266602 C0.82967185 51.48120697 -0.52254217 51.48054948 -1.87475586 51.48071289 C-11.74016163 51.43561962 -11.74016163 51.43561962 -12.88061523 50.29516602 C-13.00833979 48.76681939 -13.06891508 47.23278449 -13.10180664 45.69946289 C-13.12497955 44.72174927 -13.14815247 43.74403564 -13.17202759 42.73669434 C-13.19187714 41.67317749 -13.21172668 40.60966064 -13.23217773 39.51391602 C-13.25533051 38.43009644 -13.27848328 37.34627686 -13.30233765 36.22961426 C-13.35005479 33.93299169 -13.39527917 31.63631621 -13.43823242 29.33959961 C-13.50532811 25.81026909 -13.58305801 22.28128347 -13.66186523 18.75219727 C-13.70677786 16.52694971 -13.75106965 14.30168952 -13.79467773 12.07641602 C-13.81857574 11.01289917 -13.84247375 9.94938232 -13.86709595 8.8536377 C-13.88396454 7.87592407 -13.90083313 6.89821045 -13.91821289 5.89086914 C-13.93518219 5.02562622 -13.95215149 4.1603833 -13.96963501 3.2689209 C-13.7264926 -2.12205554 -4.20307758 0.02323714 0 0 Z M7.11938477 13.29516602 C6.78938477 14.94516602 6.45938477 16.59516602 6.11938477 18.29516602 C9.03572606 18.54538171 9.03572606 18.54538171 12.11938477 18.29516602 C12.77938477 17.30516602 13.43938477 16.31516602 14.11938477 15.29516602 C11.16560978 12.92536588 11.16560978 12.92536588 7.11938477 13.29516602 Z M6.11938477 31.29516602 C6.11938477 32.94516602 6.11938477 34.59516602 6.11938477 36.29516602 C8.42938477 36.29516602 10.73938477 36.29516602 13.11938477 36.29516602 C13.44938477 34.97516602 13.77938477 33.65516602 14.11938477 32.29516602 C11.41059141 30.94076934 9.11005209 31.23015151 6.11938477 31.29516602 Z " fill="#E3E2DD" transform="translate(136.880615234375,266.704833984375)"/>
<path d="M0 0 C6.6 0 13.2 0 20 0 C21.98 4.95 23.96 9.9 26 15 C28.04650391 11.93024413 28.99704565 9.30915848 30.125 5.8125 C30.74375 3.894375 31.3625 1.97625 32 0 C38.6 0 45.2 0 52 0 C50.54881441 6.53033515 49.52951808 10.50976544 46.6875 16.1875 C44.28081266 21.10990142 42.20838596 25.98983473 40.4375 31.1875 C38.17585243 37.79904973 35.24379883 43.81415106 32 50 C23.585 50.495 23.585 50.495 15 51 C14 47 14 47 15 44.5625 C16.86613531 39.78052827 14.53079104 35.61153949 12.59971619 31.14851379 C12.27677078 30.41501205 11.95382538 29.68151031 11.62109375 28.92578125 C11.28956802 28.16073776 10.9580423 27.39569427 10.61647034 26.60746765 C9.56142757 24.1737752 8.50006967 21.74291461 7.4375 19.3125 C6.37181148 16.87118742 5.30759009 14.42928444 4.24781799 11.98539734 C3.58922853 10.46692672 2.92716592 8.94995691 2.26133728 7.43464661 C0 2.22485882 0 2.22485882 0 0 Z " fill="#E3E2DD" transform="translate(285,277)"/>
<path d="M0 0 C4.88522113 4.62748764 7.67854052 9.08271736 8.24291992 15.96020508 C8.23881104 16.96978271 8.23470215 17.97936035 8.23046875 19.01953125 C8.22853516 20.12361328 8.22660156 21.22769531 8.22460938 22.36523438 C8.20624023 24.07163086 8.20624023 24.07163086 8.1875 25.8125 C8.18685547 26.96943359 8.18621094 28.12636719 8.18554688 29.31835938 C8.14040824 37.85959176 8.14040824 37.85959176 7 39 C4.34346557 39.10002455 1.71870728 39.13877463 -0.9375 39.125 C-1.67935547 39.12886719 -2.42121094 39.13273437 -3.18554688 39.13671875 C-8.74672998 39.12663501 -8.74672998 39.12663501 -11 38 C-11.33 30.74 -11.66 23.48 -12 16 C-12.99 15.67 -13.98 15.34 -15 15 C-14.98428955 15.65597168 -14.9685791 16.31194336 -14.95239258 16.98779297 C-14.89016348 19.95010816 -14.85104832 22.9122861 -14.8125 25.875 C-14.78736328 26.90753906 -14.76222656 27.94007813 -14.73632812 29.00390625 C-14.72666016 29.99003906 -14.71699219 30.97617187 -14.70703125 31.9921875 C-14.6913208 32.90339355 -14.67561035 33.81459961 -14.65942383 34.75341797 C-14.77181396 35.49479004 -14.8842041 36.23616211 -15 37 C-18.65893505 39.43929003 -21.40278333 39.26289673 -25.625 39.1875 C-26.31851562 39.18685547 -27.01203125 39.18621094 -27.7265625 39.18554688 C-32.85956743 39.14043257 -32.85956743 39.14043257 -34 38 C-34.2833457 33.79875599 -34.23191344 29.58464605 -34.25 25.375 C-34.270625 24.19808594 -34.29125 23.02117187 -34.3125 21.80859375 C-34.34639073 14.27637864 -34.15944956 8.84598184 -29.23828125 2.85546875 C-20.63898829 -4.5926004 -9.98291601 -6.65527734 0 0 Z " fill="#E3E3DE" transform="translate(439,279)"/>
<path d="M0 0 C1.5631897 0.00785522 1.5631897 0.00785522 3.15795898 0.01586914 C4.28266602 0.0190918 5.40737305 0.02231445 6.56616211 0.02563477 C7.75016602 0.03401367 8.93416992 0.04239258 10.15405273 0.05102539 C11.34192383 0.05553711 12.52979492 0.06004883 13.75366211 0.06469727 C16.69967499 0.07652864 19.64558954 0.09301252 22.59155273 0.11352539 C23.87722003 2.68485998 23.71165052 4.51069639 23.70507812 7.3894043 C23.70500259 8.49039459 23.70492706 9.59138489 23.70484924 10.72573853 C23.69968796 11.91847382 23.69452667 13.11120911 23.68920898 14.34008789 C23.68779404 15.55804047 23.68637909 16.77599304 23.68492126 18.03085327 C23.67930912 21.93343529 23.66675452 25.83596062 23.65405273 29.73852539 C23.6490393 32.37914956 23.64447612 35.01977463 23.64038086 37.66040039 C23.63018524 44.14481498 23.6106121 50.62910648 23.59155273 57.11352539 C14.68155273 57.11352539 5.77155273 57.11352539 -3.40844727 57.11352539 C-3.4293933 49.83594078 -3.44943133 42.55846476 -3.46019745 35.28087616 C-3.46548696 31.89215308 -3.47256007 28.50345483 -3.48388672 25.11474609 C-3.49678993 21.23022762 -3.5016765 17.34571942 -3.50610352 13.46118164 C-3.5112648 12.24141129 -3.51642609 11.02164093 -3.52174377 9.76490784 C-3.52181931 8.64382126 -3.52189484 7.52273468 -3.52197266 6.36767578 C-3.52419327 5.37506241 -3.52641388 4.38244904 -3.52870178 3.35975647 C-3.36083025 0.22408827 -3.14502429 0.14824494 0 0 Z " fill="#E4E3DD" transform="translate(293.408447265625,198.886474609375)"/>
<path d="M0 0 C5.13105329 4.27587774 8.58020843 9.29092858 9.33691406 15.97680664 C9.4282773 19.30579171 9.39864465 22.60848787 9.3125 25.9375 C9.29799805 27.65936523 9.29799805 27.65936523 9.28320312 29.41601562 C9.16860651 37.83139349 9.16860651 37.83139349 8 39 C3.81254314 39.15033664 -0.37578002 38.94566252 -4.5625 38.8125 C-5.73103516 38.79380859 -6.89957031 38.77511719 -8.10351562 38.75585938 C-16.05824077 38.50012371 -22.20908154 37.68301755 -28.05859375 32 C-28.51363281 31.34 -28.96867187 30.68 -29.4375 30 C-29.91058594 29.34 -30.38367188 28.68 -30.87109375 28 C-33.65588399 23.06639238 -33.48994347 17.52061299 -33 12 C-31.75 8.6875 -31.75 8.6875 -30 6 C-29.443125 5.13375 -28.88625 4.2675 -28.3125 3.375 C-20.48072731 -4.66844222 -9.49273969 -5.90659358 0 0 Z M-14 15 C-14.33 16.32 -14.66 17.64 -15 19 C-12.18490007 21.2773501 -12.18490007 21.2773501 -9 21 C-9 19.35 -9 17.7 -9 16 C-10.65 15.67 -12.3 15.34 -14 15 Z " fill="#E3E2DD" transform="translate(383,279)"/>
<path d="M0 0 C2.8153125 0.061875 2.8153125 0.061875 5.6875 0.125 C5.6875 5.735 5.6875 11.345 5.6875 17.125 C3.3775 17.455 1.0675 17.785 -1.3125 18.125 C-1.30464478 19.06351807 -1.30464478 19.06351807 -1.29663086 20.02099609 C-1.27588382 22.84732057 -1.26284714 25.67362905 -1.25 28.5 C-1.24162109 29.48484375 -1.23324219 30.4696875 -1.22460938 31.484375 C-1.21977539 32.89589844 -1.21977539 32.89589844 -1.21484375 34.3359375 C-1.20698853 35.63990479 -1.20698853 35.63990479 -1.19897461 36.97021484 C-1.3125 39.125 -1.3125 39.125 -2.3125 41.125 C-4.93756802 41.15190844 -7.56236173 41.17179404 -10.1875 41.1875 C-10.93386719 41.19587891 -11.68023437 41.20425781 -12.44921875 41.21289062 C-18.0859375 41.23828125 -18.0859375 41.23828125 -20.3125 40.125 C-20.40010181 35.93763332 -20.45309435 31.75050469 -20.5 27.5625 C-20.52513672 26.38107422 -20.55027344 25.19964844 -20.57617188 23.98242188 C-20.63637317 16.81846769 -20.66177602 11.12399897 -15.8828125 5.41796875 C-10.56067122 1.34724988 -6.70205006 -0.1472978 0 0 Z " fill="#E3E3DE" transform="translate(235.3125,276.875)"/>
<path d="M0 0 C0 1.32 0 2.64 0 4 C-4.04141194 4.63394697 -7.9065307 5.12404452 -12 5 C-12 5.66 -12 6.32 -12 7 C-12.99 7.495 -12.99 7.495 -14 8 C-14 8.66 -14 9.32 -14 10 C-13.278125 9.67 -12.55625 9.34 -11.8125 9 C-8.98302573 7.99396471 -6.97104534 7.83022598 -4 8 C-3.67 7.34 -3.34 6.68 -3 6 C-0.4375 5.375 -0.4375 5.375 2 5 C2.495 6.98 2.495 6.98 3 9 C1.89591797 9.29003906 1.89591797 9.29003906 0.76953125 9.5859375 C-0.20628906 9.84632813 -1.18210937 10.10671875 -2.1875 10.375 C-3.15042969 10.63023437 -4.11335938 10.88546875 -5.10546875 11.1484375 C-7.82210207 11.94766296 -10.39137175 12.9031362 -13 14 C-11.88873341 15.33901792 -11.88873341 15.33901792 -9.05859375 15.09765625 C-7.86363281 15.08605469 -6.66867187 15.07445312 -5.4375 15.0625 C-4.23996094 15.05347656 -3.04242188 15.04445312 -1.80859375 15.03515625 C-0.41833984 15.01775391 -0.41833984 15.01775391 1 15 C1.89721507 17.46046096 2.17742086 18.57791658 1.14453125 21.03515625 C-1.30288315 24.76010662 -3.36857702 27.37034888 -7 30 C-7.99 32.475 -7.99 32.475 -9 35 C-13.95 35.33 -18.9 35.66 -24 36 C-24.33 34.02 -24.66 32.04 -25 30 C-27.36768466 28.84549799 -27.36768466 28.84549799 -30 28 C-31.80078125 25.94140625 -31.80078125 25.94140625 -33.3125 23.5625 C-33.82425781 22.78003906 -34.33601563 21.99757812 -34.86328125 21.19140625 C-36 19 -36 19 -36 16 C-30.94997778 14.96409801 -26.12583611 14.89748328 -21 15 C-21.66 14.67 -22.32 14.34 -23 14 C-22.67 12.68 -22.34 11.36 -22 10 C-24.05270463 11.84188612 -24.05270463 11.84188612 -25 14 C-26.32 13.67 -27.64 13.34 -29 13 C-28.67 12.2575 -28.34 11.515 -28 10.75 C-26.77217129 7.86116688 -26.77217129 7.86116688 -27 4 C-19.09244163 -1.05205118 -9.07357696 -0.15122628 0 0 Z " fill="#E8B132" transform="translate(485,233)"/>
<path d="M0 0 C1.58206057 0.00667536 3.16410534 0.0186375 4.74609375 0.03515625 C5.55240234 0.03966797 6.35871094 0.04417969 7.18945312 0.04882812 C9.18753131 0.06065107 11.18557158 0.07858711 13.18359375 0.09765625 C15.71323118 3.92476908 15.47273916 7.87446585 15.44921875 12.29296875 C15.4511322 13.08162323 15.45304565 13.87027771 15.45501709 14.68283081 C15.45637521 16.34536052 15.45270481 18.00790096 15.44433594 19.67041016 C15.43360233 22.22061804 15.44425821 24.77012606 15.45703125 27.3203125 C15.45571015 28.93619948 15.45314878 30.55208601 15.44921875 32.16796875 C15.45326721 32.93255402 15.45731567 33.69713928 15.46148682 34.4848938 C15.41353466 39.86771534 15.41353466 39.86771534 13.18359375 42.09765625 C10.29227198 42.26944677 7.5091731 42.32995095 4.62109375 42.28515625 C3.82767578 42.28451172 3.03425781 42.28386719 2.21679688 42.28320312 C-3.67615103 42.23791147 -3.67615103 42.23791147 -4.81640625 41.09765625 C-4.91750978 38.15230055 -4.95609904 35.23088065 -4.94921875 32.28515625 C-4.95017548 31.40110107 -4.9511322 30.5170459 -4.95211792 29.60620117 C-4.95279976 27.73323496 -4.95094518 25.86026639 -4.94677734 23.98730469 C-4.94142914 21.10997237 -4.94672218 18.23279617 -4.953125 15.35546875 C-4.95246422 13.54036424 -4.95118306 11.72525982 -4.94921875 9.91015625 C-4.95124298 9.04350342 -4.95326721 8.17685059 -4.95535278 7.28393555 C-4.92706192 0.1260763 -4.92706192 0.1260763 0 0 Z " fill="#E4E4DF" transform="translate(463.81640625,275.90234375)"/>
<path d="M0 0 C6.27 0 12.54 0 19 0 C19.02290685 5.67835397 19.04283457 11.35654881 19.05493164 17.03491211 C19.05997256 18.96818585 19.06680519 20.90145576 19.07543945 22.8347168 C19.08751565 25.60726872 19.09323057 28.37977041 19.09765625 31.15234375 C19.10281754 32.02213364 19.10797882 32.89192352 19.11329651 33.78807068 C19.11349185 35.85905814 19.06208168 37.92994324 19 40 C17.1144747 41.8855253 14.42231169 41.13246689 11.91796875 41.13671875 C11.12003906 41.13285156 10.32210937 41.12898438 9.5 41.125 C8.70207031 41.12886719 7.90414062 41.13273437 7.08203125 41.13671875 C1.12660767 41.12660767 1.12660767 41.12660767 0 40 C-0.08868299 37.04294679 -0.11520296 34.10934944 -0.09765625 31.15234375 C-0.0962413 30.2659169 -0.09482635 29.37949005 -0.09336853 28.46620178 C-0.08775215 25.62326746 -0.07519691 22.78041069 -0.0625 19.9375 C-0.05748711 18.01497509 -0.05292384 16.09244896 -0.04882812 14.16992188 C-0.03862648 9.44656036 -0.01905437 4.72336742 0 0 Z " fill="#E2E2DD" transform="translate(183,277)"/>
<path d="M0 0 C6.27 0 12.54 0 19 0 C19.02290685 5.67835397 19.04283457 11.35654881 19.05493164 17.03491211 C19.05997256 18.96818585 19.06680519 20.90145576 19.07543945 22.8347168 C19.08751565 25.60726872 19.09323057 28.37977041 19.09765625 31.15234375 C19.10281754 32.02213364 19.10797882 32.89192352 19.11329651 33.78807068 C19.11349185 35.85905814 19.06208168 37.92994324 19 40 C17.26312034 41.73687966 15.03828808 41.13220366 12.7265625 41.13671875 C12.03304688 41.13285156 11.33953125 41.12898438 10.625 41.125 C9.93921875 41.12886719 9.2534375 41.13273437 8.546875 41.13671875 C5.42777362 41.13065046 2.98024365 40.99341455 0 40 C0 26.8 0 13.6 0 0 Z " fill="#E4E3DF" transform="translate(254,277)"/>
<path d="M0 0 C0 1.32 0 2.64 0 4 C-4.04141194 4.63394697 -7.9065307 5.12404452 -12 5 C-12 5.66 -12 6.32 -12 7 C-12.92232422 7.16435547 -12.92232422 7.16435547 -13.86328125 7.33203125 C-15.07564453 7.56986328 -15.07564453 7.56986328 -16.3125 7.8125 C-17.51326172 8.03873047 -17.51326172 8.03873047 -18.73828125 8.26953125 C-21.27063672 9.08740771 -22.33009439 9.96014607 -24 12 C-24.33 12.66 -24.66 13.32 -25 14 C-26.32 13.67 -27.64 13.34 -29 13 C-28.67 12.2575 -28.34 11.515 -28 10.75 C-26.77217129 7.86116688 -26.77217129 7.86116688 -27 4 C-19.09244163 -1.05205118 -9.07357696 -0.15122628 0 0 Z " fill="#B18838" transform="translate(485,233)"/>
<path d="M0 0 C0 0.66 0 1.32 0 2 C-4.75 3.125 -4.75 3.125 -7 2 C-9.3400417 2.28241883 -11.67504723 2.61250787 -14 3 C-12.84434349 5.53884453 -12.84434349 5.53884453 -11 8 C-8.40877257 8.88658466 -8.40877257 8.88658466 -6 9 C-6 8.01 -6 7.02 -6 6 C-4.0625 6.3125 -4.0625 6.3125 -2 7 C-1 10 -1 10 -1.9375 12.1875 C-2.288125 12.785625 -2.63875 13.38375 -3 14 C-3.66 14 -4.32 14 -5 14 C-4.67 14.99 -4.34 15.98 -4 17 C2.93 17.495 2.93 17.495 10 18 C10 18.33 10 18.66 10 19 C5.05 19.33 0.1 19.66 -5 20 C-5.33 18.02 -5.66 16.04 -6 14 C-8.36768466 12.84549799 -8.36768466 12.84549799 -11 12 C-12.80078125 9.94140625 -12.80078125 9.94140625 -14.3125 7.5625 C-14.82425781 6.78003906 -15.33601563 5.99757812 -15.86328125 5.19140625 C-17 3 -17 3 -17 0 C-11.31147144 -1.13770571 -5.58384613 -1.86128204 0 0 Z " fill="#E1B345" transform="translate(466,249)"/>
<path d="M0 0 C2.31 0 4.62 0 7 0 C5.68 0.33 4.36 0.66 3 1 C2.67 13.54 2.34 26.08 2 39 C7.28 39 12.56 39 18 39 C18 39.66 18 40.32 18 41 C15.18743719 41.02684312 12.37512759 41.04676188 9.5625 41.0625 C8.76005859 41.07087891 7.95761719 41.07925781 7.13085938 41.08789062 C5.08704779 41.0965143 3.04316098 41.0522815 1 41 C0 40 0 40 -0.11352539 36.21459961 C-0.11336622 34.52717271 -0.10766917 32.83974095 -0.09765625 31.15234375 C-0.0962413 30.2659169 -0.09482635 29.37949005 -0.09336853 28.46620178 C-0.08775215 25.62326746 -0.07519691 22.78041069 -0.0625 19.9375 C-0.05748711 18.01497509 -0.05292384 16.09244896 -0.04882812 14.16992188 C-0.03777741 9.44658451 -0.02050183 4.72330542 0 0 Z " fill="#EDEBE7" transform="translate(183,277)"/>
<path d="M0 0 C0 0.99 0 1.98 0 3 C-0.73605469 3.19335938 -1.47210938 3.38671875 -2.23046875 3.5859375 C-3.69419922 3.97652344 -3.69419922 3.97652344 -5.1875 4.375 C-6.63189453 4.75785156 -6.63189453 4.75785156 -8.10546875 5.1484375 C-10.82655795 5.94897386 -13.38632738 6.90366081 -16 8 C-21.42185339 10.21300138 -21.42185339 10.21300138 -24.375 9.125 C-24.91125 8.75375 -25.4475 8.3825 -26 8 C-25.34 6.02 -24.68 4.04 -24 2 C-21.69 2 -19.38 2 -17 2 C-17 2.66 -17 3.32 -17 4 C-15.9171875 3.505 -15.9171875 3.505 -14.8125 3 C-11.98302573 1.99396471 -9.97104534 1.83022598 -7 2 C-6.67 1.34 -6.34 0.68 -6 0 C-2.49056604 -1.24528302 -2.49056604 -1.24528302 0 0 Z " fill="#D6A944" transform="translate(488,239)"/>
<path d="M0 0 C-0.33 0.66 -0.66 1.32 -1 2 C-0.34 2.66 0.32 3.32 1 4 C-2 5 -2 5 -5 4 C-5.33 4.66 -5.66 5.32 -6 6 C-6.33 5.01 -6.66 4.02 -7 3 C-7.66 2.67 -8.32 2.34 -9 2 C-9.33 2.33 -9.66 2.66 -10 3 C-12.36377863 4.46717294 -13.45895094 5.09017484 -16.25 4.625 C-16.8275 4.41875 -17.405 4.2125 -18 4 C-18 3.34 -18 2.68 -18 2 C-21.3 1.67 -24.6 1.34 -28 1 C-19.65795024 -3.17102488 -9.0570411 -0.80635024 0 0 Z " fill="#E2E0D8" transform="translate(109,185)"/>
<path d="M0 0 C7.01183841 0.58431987 13.12756269 2.55924156 17.9375 7.9375 C19.91431134 10.87276532 20.90770064 12.49262442 21 16 C20.0625 18.3125 20.0625 18.3125 19 20 C18.67 19.01 18.34 18.02 18 17 C15.98491642 16.26676204 15.98491642 16.26676204 14 16 C14.165 15.4225 14.33 14.845 14.5 14.25 C15.14462031 11.73335631 15.14462031 11.73335631 15 8 C12.17654921 5.22360673 8.9482881 4.08928994 5.25 2.8125 C3.77273437 2.29623047 3.77273437 2.29623047 2.265625 1.76953125 C1.51796875 1.51558594 0.7703125 1.26164063 0 1 C0 0.67 0 0.34 0 0 Z " fill="#DBB345" transform="translate(139,133)"/>
<path d="M0 0 C1 2 1 2 1 3 C2.98 2.67 4.96 2.34 7 2 C7.33 3.32 7.66 4.64 8 6 C6.88625 6.28875 5.7725 6.5775 4.625 6.875 C0.99708908 7.69241329 0.99708908 7.69241329 -1 10 C-1.33 10.66 -1.66 11.32 -2 12 C-3.32 11.67 -4.64 11.34 -6 11 C-5.67 10.2575 -5.34 9.515 -5 8.75 C-3.77217129 5.86116688 -3.77217129 5.86116688 -4 2 C-2.68 1.34 -1.36 0.68 0 0 Z " fill="#BA9A42" transform="translate(462,235)"/>
<path d="M0 0 C0.33 0 0.66 0 1 0 C1.14285714 7.42857143 1.14285714 7.42857143 0 11 C0.83789062 10.50886719 1.67578125 10.01773438 2.5390625 9.51171875 C6.46250831 7.79797888 9.12063208 7.69209336 13.375 7.8125 C14.62023437 7.83957031 15.86546875 7.86664063 17.1484375 7.89453125 C18.08945313 7.92933594 19.03046875 7.96414062 20 8 C20 8.33 20 8.66 20 9 C19.21496094 9.10957031 18.42992188 9.21914062 17.62109375 9.33203125 C11.57652929 10.2442784 6.52192288 11.41527014 1 14 C0.01 14 -0.98 14 -2 14 C-1.03644647 4.58997722 -1.03644647 4.58997722 0 0 Z " fill="#D6B05E" transform="translate(90,171)"/>
<path d="M0 0 C8.25 0.33 16.5 0.66 25 1 C25.33 1.66 25.66 2.32 26 3 C17.42 3 8.84 3 0 3 C0 2.01 0 1.02 0 0 Z " fill="#F6F5F3" transform="translate(125,315)"/>
<path d="M0 0 C0 0.99 0 1.98 0 3 C-1.74985354 3.47970123 -3.49988891 3.95873924 -5.25 4.4375 C-6.22453125 4.70433594 -7.1990625 4.97117188 -8.203125 5.24609375 C-10.46372653 5.85544584 -12.72622009 6.44238255 -15 7 C-14.34 6.67 -13.68 6.34 -13 6 C-13 5.34 -13 4.68 -13 4 C-13.66 3.67 -14.32 3.34 -15 3 C-12.10765685 2.17361624 -10.11257569 2 -7 2 C-6.67 1.34 -6.34 0.68 -6 0 C-2.49056604 -1.24528302 -2.49056604 -1.24528302 0 0 Z " fill="#CBA354" transform="translate(488,239)"/>
<path d="M0 0 C1.1725131 0.95117134 2.33787015 1.91117009 3.5 2.875 C4.47453125 3.67550781 4.47453125 3.67550781 5.46875 4.4921875 C5.9740625 4.98976562 6.479375 5.48734375 7 6 C7 6.66 7 7.32 7 8 C9.62834278 8 12.08186701 7.80210238 14.6875 7.5 C15.89986328 7.36078125 15.89986328 7.36078125 17.13671875 7.21875 C18.05904297 7.11046875 18.05904297 7.11046875 19 7 C14.99058587 10.07388417 12.95889208 11.1276781 7.875 11.0625 C6.96492188 11.05347656 6.05484375 11.04445312 5.1171875 11.03515625 C4.41851562 11.02355469 3.71984375 11.01195312 3 11 C3.0928125 9.6078125 3.0928125 9.6078125 3.1875 8.1875 C3.32377263 5.02056752 3.32377263 5.02056752 1.5 3.25 C1.005 2.8375 0.51 2.425 0 2 C0 1.34 0 0.68 0 0 Z " fill="#DDB749" transform="translate(117,125)"/>
<path d="M0 0 C0.33 0 0.66 0 1 0 C1 1.65 1 3.3 1 5 C0.34 5 -0.32 5 -1 5 C-1.33 6.65 -1.66 8.3 -2 10 C-3.32 9.67 -4.64 9.34 -6 9 C-6 8.34 -6 7.68 -6 7 C-6.99 6.34 -7.98 5.68 -9 5 C-9 4.34 -9 3.68 -9 3 C-6.03 3 -3.06 3 0 3 C0 2.01 0 1.02 0 0 Z " fill="#EAB32D" transform="translate(484,248)"/>
<path d="M0 0 C0.66 0.66 1.32 1.32 2 2 C0.63550416 7.20989319 -1.39849844 10.12838582 -5 14 C-5.99 14.495 -5.99 14.495 -7 15 C-8.13350534 17.01669827 -8.13350534 17.01669827 -9 19 C-9 17.35 -9 15.7 -9 14 C-8.01 13.67 -7.02 13.34 -6 13 C-6.99 11.35 -7.98 9.7 -9 8 C-7.02 8.66 -5.04 9.32 -3 10 C-2.67 8.35 -2.34 6.7 -2 5 C-1.34 5 -0.68 5 0 5 C0 3.35 0 1.7 0 0 Z " fill="#DEB450" transform="translate(485,248)"/>
<path d="M0 0 C0.99 0 1.98 0 3 0 C3.66 2.64 4.32 5.28 5 8 C3.37419034 7.88601335 1.74932843 7.75844341 0.125 7.625 C-0.77992188 7.55539063 -1.68484375 7.48578125 -2.6171875 7.4140625 C-5 7 -5 7 -7 5 C-3.535 4.505 -3.535 4.505 0 4 C-0.33 3.01 -0.66 2.02 -1 1 C-0.67 0.67 -0.34 0.34 0 0 Z " fill="#E3B041" transform="translate(129,174)"/>
<path d="M0 0 C-6.93 3.465 -6.93 3.465 -14 7 C-14.33 6.34 -14.66 5.68 -15 5 C-14.34 5 -13.68 5 -13 5 C-12.814375 4.38125 -12.62875 3.7625 -12.4375 3.125 C-11 1 -11 1 -7.625 -0.3125 C-4 -1 -4 -1 0 0 Z " fill="#DDB24A" transform="translate(153,156)"/>
<path d="M0 0 C0 0.66 0 1.32 0 2 C-0.804375 2.474375 -1.60875 2.94875 -2.4375 3.4375 C-5.2918076 4.79983672 -5.2918076 4.79983672 -6 8 C-7.92578125 8.984375 -7.92578125 8.984375 -10.3125 9.75 C-11.09238281 10.01296875 -11.87226562 10.2759375 -12.67578125 10.546875 C-15.16921091 11.03298902 -16.6181897 10.80665429 -19 10 C-18.33613281 9.76925781 -17.67226562 9.53851563 -16.98828125 9.30078125 C-11.45159909 7.25584609 -7.85885158 5.46179714 -4 1 C-2 0 -2 0 0 0 Z " fill="#E1B151" transform="translate(86,124)"/>
<path d="M0 0 C2.06242617 -0.02717692 4.12495703 -0.0464758 6.1875 -0.0625 C7.33605469 -0.07410156 8.48460937 -0.08570313 9.66796875 -0.09765625 C12.59300586 -0.01192832 15.16316291 0.32150977 18 1 C18 1.66 18 2.32 18 3 C15.37493198 3.02690844 12.75013827 3.04679404 10.125 3.0625 C9.37863281 3.07087891 8.63226563 3.07925781 7.86328125 3.08789062 C2.2265625 3.11328125 2.2265625 3.11328125 0 2 C0 1.34 0 0.68 0 0 Z " fill="#F4F4EA" transform="translate(428,315)"/>
<path d="M0 0 C2.97 0 5.94 0 9 0 C9 1.32 9 2.64 9 4 C2.375 5.25 2.375 5.25 -1 3 C-0.67 2.01 -0.34 1.02 0 0 Z " fill="#C6A23F" transform="translate(476,233)"/>
<path d="M0 0 C6.77386385 0.27259009 11.34724339 1.19053359 17 5 C14.11301479 6.4434926 12.10530768 5.63373626 9 5 C8.01 4.67 7.02 4.34 6 4 C6 3.34 6 2.68 6 2 C4.02 2 2.04 2 0 2 C0 1.34 0 0.68 0 0 Z " fill="#DFB651" transform="translate(100,119)"/>
<path d="M0 0 C2.31 0 4.62 0 7 0 C6.67 1.98 6.34 3.96 6 6 C4.35 5.67 2.7 5.34 1 5 C0.67 3.35 0.34 1.7 0 0 Z " fill="#E6BD29" transform="translate(464,241)"/>
<path d="M0 0 C0.66 0.33 1.32 0.66 2 1 C1.34 2.32 0.68 3.64 0 5 C-0.99 4.67 -1.98 4.34 -3 4 C-3.33 5.65 -3.66 7.3 -4 9 C-4.66 9 -5.32 9 -6 9 C-6.33 10.32 -6.66 11.64 -7 13 C-7.3125 10.3125 -7.3125 10.3125 -7 7 C-4.625 4.25 -4.625 4.25 -2 2 C-1.34 1.34 -0.68 0.68 0 0 Z " fill="#E0B34B" transform="translate(61,137)"/>
<path d="M0 0 C1.65 0 3.3 0 5 0 C5.33 0.99 5.66 1.98 6 3 C7.65 3 9.3 3 11 3 C11 4.65 11 6.3 11 8 C10.01 7.67 9.02 7.34 8 7 C8 6.34 8 5.68 8 5 C7.4225 4.731875 6.845 4.46375 6.25 4.1875 C3.9674132 2.98280141 2.0262058 1.59201885 0 0 Z " fill="#D3A552" transform="translate(78,163)"/>
<path d="M0 0 C0.98484375 0.00902344 1.9696875 0.01804688 2.984375 0.02734375 C4.10585937 0.04474609 4.10585937 0.04474609 5.25 0.0625 C5.25 0.7225 5.25 1.3825 5.25 2.0625 C3.50181409 2.28554441 1.75129677 2.4903645 0 2.6875 C-0.97453125 2.80351562 -1.9490625 2.91953125 -2.953125 3.0390625 C-5.88429393 3.06362537 -7.29528964 2.5937717 -9.75 1.0625 C-6.43929162 0.06140485 -3.44915231 -0.04106134 0 0 Z " fill="#DBD2B5" transform="translate(90.75,183.9375)"/>
<path d="M0 0 C-1.65 0.33 -3.3 0.66 -5 1 C-5 1.66 -5 2.32 -5 3 C-7.64 3 -10.28 3 -13 3 C-9.61630675 -1.37889715 -4.63208044 -3.08805363 0 0 Z " fill="#DEAF4F" transform="translate(99,121)"/>
<path d="M0 0 C1.93166016 0.01740234 1.93166016 0.01740234 3.90234375 0.03515625 C5.19269531 0.04417969 6.48304687 0.05320313 7.8125 0.0625 C8.81152344 0.07410156 9.81054688 0.08570313 10.83984375 0.09765625 C10.83984375 0.42765625 10.83984375 0.75765625 10.83984375 1.09765625 C8.7172952 1.4862919 6.59167547 1.85818834 4.46484375 2.22265625 C2.68980469 2.53589844 2.68980469 2.53589844 0.87890625 2.85546875 C-0.12398438 2.93539062 -1.126875 3.0153125 -2.16015625 3.09765625 C-2.82015625 2.43765625 -3.48015625 1.77765625 -4.16015625 1.09765625 C-3.16015625 0.09765625 -3.16015625 0.09765625 0 0 Z " fill="#D3AE46" transform="translate(99.16015625,178.90234375)"/>
<path d="M0 0 C3.11373372 1.49920512 6.12228205 3.08152136 9 5 C9 5.66 9 6.32 9 7 C4.58110387 5.64978174 2.65654657 3.73884332 0 0 Z " fill="#DCB252" transform="translate(56,152)"/>
<path d="M0 0 C0.66 0.33 1.32 0.66 2 1 C2 2.98 2 4.96 2 7 C1.01 7.33 0.02 7.66 -1 8 C-1.125 2.25 -1.125 2.25 0 0 Z " fill="#ECEBE5" transform="translate(143,291)"/>
<path d="M0 0 C0.33 0.66 0.66 1.32 1 2 C0.01 2.495 0.01 2.495 -1 3 C-1.65213292 5.02463255 -1.65213292 5.02463255 -2 7 C-2.66 6.67 -3.32 6.34 -4 6 C-4 4.68 -4 3.36 -4 2 C-2.68 1.34 -1.36 0.68 0 0 Z " fill="#B99E5A" transform="translate(462,235)"/>
<path d="M0 0 C0.66 0 1.32 0 2 0 C2 0.66 2 1.32 2 2 C2.66 2 3.32 2 4 2 C3.67 3.32 3.34 4.64 3 6 C1.68 5.34 0.36 4.68 -1 4 C-0.67 2.68 -0.34 1.36 0 0 Z " fill="#EAAF3E" transform="translate(56,148)"/>
</svg>
